<svg width="24" height="24" viewBox="0 0 24 24" fill="none" xmlns="http://www.w3.org/2000/svg">
<path d="M11.063 3.10932L3.06296 9.50932C2.70713 9.79398 2.5 10.2249 2.5 10.6806V20C2.5 20.8284 3.17157 21.5 4 21.5H8.30001C9.12844 21.5 9.80001 20.8284 9.80001 20V15.6C9.80001 15.2143 9.8085 14.67 10.0699 14.2198C10.2999 13.8238 10.789 13.4 12 13.4C13.211 13.4 13.7002 13.8238 13.9301 14.2198C14.1915 14.67 14.2 15.2143 14.2 15.6V20C14.2 20.8284 14.8716 21.5 15.7 21.5H20C20.8284 21.5 21.5 20.8284 21.5 20V10.6806C21.5 10.2249 21.2929 9.79398 20.937 9.50932L12.937 3.10932C12.3892 2.67106 11.6108 2.67106 11.063 3.10932Z" stroke="#333333"/>
</svg>
