<svg width="24" height="24" viewBox="0 0 24 24" fill="none" xmlns="http://www.w3.org/2000/svg">
<mask id="path-1-outside-1_128_469" maskUnits="userSpaceOnUse" x="1" y="1" width="22" height="22" fill="black">
<rect fill="white" x="1" y="1" width="22" height="22"/>
<path fill-rule="evenodd" clip-rule="evenodd" d="M12 22C17.5228 22 22 17.5228 22 12C22 6.47715 17.5228 2 12 2C6.47715 2 2 6.47715 2 12C2 17.5228 6.47715 22 12 22ZM7.5 12.6C7.5 12.3239 7.72386 12.1 8 12.1C8.27614 12.1 8.5 12.3239 8.5 12.6C8.5 14.533 10.067 16.1 12 16.1C13.933 16.1 15.5 14.533 15.5 12.6C15.5 10.667 13.933 9.1 12 9.1H11.7342L12.3841 9.87991C12.5609 10.092 12.5322 10.4073 12.3201 10.5841C12.108 10.7609 11.7927 10.7322 11.6159 10.5201L10.2826 8.92009C10.128 8.73467 10.128 8.46533 10.2826 8.27991L11.6159 6.67991C11.7927 6.46777 12.108 6.43911 12.3201 6.61589C12.5322 6.79267 12.5609 7.10795 12.3841 7.32009L11.7342 8.1H12C14.4853 8.1 16.5 10.1147 16.5 12.6C16.5 15.0853 14.4853 17.1 12 17.1C9.51472 17.1 7.5 15.0853 7.5 12.6Z"/>
</mask>
<path d="M8 12.1L8 13.1H8V12.1ZM11.7342 9.1V8.1C11.3462 8.1 10.9932 8.32446 10.8286 8.67584C10.664 9.02723 10.7176 9.4421 10.966 9.74018L11.7342 9.1ZM12.3841 9.87991L13.1523 9.23972L13.1523 9.23972L12.3841 9.87991ZM12.3201 10.5841L12.9603 11.3523L12.9603 11.3523L12.3201 10.5841ZM11.6159 10.5201L12.3841 9.87991L12.3841 9.87991L11.6159 10.5201ZM10.2826 8.92009L9.51433 9.56028H9.51433L10.2826 8.92009ZM10.2826 8.27991L9.51433 7.63972L9.51433 7.63972L10.2826 8.27991ZM11.6159 6.67991L12.3841 7.32009L12.3841 7.32009L11.6159 6.67991ZM12.3201 6.61589L11.6799 7.38411L11.6799 7.38411L12.3201 6.61589ZM12.3841 7.32009L13.1523 7.96028L13.1523 7.96028L12.3841 7.32009ZM11.7342 8.1L10.966 7.45982C10.7176 7.7579 10.664 8.17277 10.8286 8.52416C10.9932 8.87554 11.3462 9.1 11.7342 9.1V8.1ZM21 12C21 16.9706 16.9706 21 12 21V23C18.0751 23 23 18.0751 23 12H21ZM12 3C16.9706 3 21 7.02944 21 12H23C23 5.92487 18.0751 1 12 1V3ZM3 12C3 7.02944 7.02944 3 12 3V1C5.92487 1 1 5.92487 1 12H3ZM12 21C7.02944 21 3 16.9706 3 12H1C1 18.0751 5.92487 23 12 23V21ZM8 11.1C7.17157 11.1 6.5 11.7716 6.5 12.6H8.5C8.5 12.8761 8.27614 13.1 8 13.1L8 11.1ZM9.5 12.6C9.5 11.7716 8.82843 11.1 8 11.1V13.1C7.72386 13.1 7.5 12.8761 7.5 12.6H9.5ZM12 15.1C10.6193 15.1 9.5 13.9807 9.5 12.6H7.5C7.5 15.0853 9.51472 17.1 12 17.1V15.1ZM14.5 12.6C14.5 13.9807 13.3807 15.1 12 15.1V17.1C14.4853 17.1 16.5 15.0853 16.5 12.6H14.5ZM12 10.1C13.3807 10.1 14.5 11.2193 14.5 12.6H16.5C16.5 10.1147 14.4853 8.1 12 8.1V10.1ZM11.7342 10.1H12V8.1H11.7342V10.1ZM13.1523 9.23972L12.5024 8.45982L10.966 9.74018L11.6159 10.5201L13.1523 9.23972ZM12.9603 11.3523C13.5967 10.822 13.6827 9.87614 13.1523 9.23972L11.6159 10.5201C11.4391 10.308 11.4678 9.99267 11.6799 9.81589L12.9603 11.3523ZM10.8477 11.1603C11.378 11.7967 12.3239 11.8827 12.9603 11.3523L11.6799 9.81589C11.892 9.63911 12.2073 9.66777 12.3841 9.87991L10.8477 11.1603ZM9.51433 9.56028L10.8477 11.1603L12.3841 9.87991L11.0508 8.27991L9.51433 9.56028ZM9.51433 7.63972C9.05078 8.19599 9.05078 9.00401 9.51433 9.56028L11.0508 8.27991C11.2053 8.46533 11.2053 8.73467 11.0508 8.92009L9.51433 7.63972ZM10.8477 6.03972L9.51433 7.63972L11.0508 8.92009L12.3841 7.32009L10.8477 6.03972ZM12.9603 5.84767C12.3239 5.31732 11.378 5.40331 10.8477 6.03972L12.3841 7.32009C12.2073 7.53223 11.892 7.56089 11.6799 7.38411L12.9603 5.84767ZM13.1523 7.96028C13.6827 7.32386 13.5967 6.37802 12.9603 5.84767L11.6799 7.38411C11.4678 7.20733 11.4391 6.89204 11.6159 6.67991L13.1523 7.96028ZM12.5024 8.74018L13.1523 7.96028L11.6159 6.67991L10.966 7.45982L12.5024 8.74018ZM12 7.1H11.7342V9.1H12V7.1ZM17.5 12.6C17.5 9.56243 15.0376 7.1 12 7.1V9.1C13.933 9.1 15.5 10.667 15.5 12.6H17.5ZM12 18.1C15.0376 18.1 17.5 15.6376 17.5 12.6H15.5C15.5 14.533 13.933 16.1 12 16.1V18.1ZM6.5 12.6C6.5 15.6376 8.96243 18.1 12 18.1V16.1C10.067 16.1 8.5 14.533 8.5 12.6H6.5Z" fill="#333333" mask="url(#path-1-outside-1_128_469)"/>
</svg>
