<svg width="24" height="24" viewBox="0 0 24 24" fill="none" xmlns="http://www.w3.org/2000/svg">
<mask id="path-1-outside-1_128_471" maskUnits="userSpaceOnUse" x="1" y="1" width="22" height="22" fill="black">
<rect fill="white" x="1" y="1" width="22" height="22"/>
<path fill-rule="evenodd" clip-rule="evenodd" d="M13.6029 3.23752C12.9225 1.58749 10.5855 1.58749 9.90503 3.23752L9.83241 3.41362C9.41037 4.43702 8.23729 4.92292 7.21521 4.4977L7.03934 4.42453C5.39145 3.73893 3.73893 5.39145 4.42453 7.03934L4.4977 7.21521C4.92292 8.23729 4.43702 9.41037 3.41362 9.83241L3.23752 9.90503C1.58749 10.5855 1.58749 12.9225 3.23752 13.6029L3.41362 13.6756C4.43702 14.0976 4.92292 15.2707 4.4977 16.2928L4.42453 16.4686C3.73893 18.1165 5.39145 19.769 7.03934 19.0834L7.21521 19.0103C8.23729 18.585 9.41037 19.0709 9.83241 20.0943L9.90503 20.2704C10.5855 21.9205 12.9225 21.9205 13.6029 20.2704L13.6756 20.0943C14.0976 19.0709 15.2707 18.585 16.2928 19.0103L16.4686 19.0834C18.1165 19.769 19.769 18.1165 19.0834 16.4686L19.0103 16.2928C18.585 15.2707 19.0709 14.0976 20.0943 13.6756L20.2704 13.6029C21.9205 12.9225 21.9205 10.5855 20.2704 9.90503L20.0943 9.83241C19.0709 9.41037 18.585 8.23729 19.0103 7.21521L19.0834 7.03934C19.769 5.39145 18.1165 3.73893 16.4686 4.42453L16.2928 4.4977C15.2707 4.92292 14.0976 4.43702 13.6756 3.41362L13.6029 3.23752ZM11.754 15.754C13.9631 15.754 15.754 13.9631 15.754 11.754C15.754 9.54484 13.9631 7.75398 11.754 7.75398C9.54484 7.75398 7.75398 9.54484 7.75398 11.754C7.75398 13.9631 9.54484 15.754 11.754 15.754Z"/>
</mask>
<path d="M9.90503 3.23752L10.8295 3.61876L10.8295 3.61876L9.90503 3.23752ZM13.6029 3.23752L14.5274 2.85628L14.5274 2.85628L13.6029 3.23752ZM9.83241 3.41362L8.90793 3.03237V3.03237L9.83241 3.41362ZM7.21521 4.4977L6.83108 5.42098L6.83108 5.42098L7.21521 4.4977ZM7.03934 4.42453L7.42346 3.50124L7.42346 3.50124L7.03934 4.42453ZM4.42453 7.03934L3.50124 7.42346L3.50124 7.42346L4.42453 7.03934ZM4.4977 7.21521L5.42098 6.83108L5.42098 6.83108L4.4977 7.21521ZM3.41362 9.83241L3.03237 8.90793H3.03237L3.41362 9.83241ZM3.23752 9.90503L3.61876 10.8295L3.61876 10.8295L3.23752 9.90503ZM3.23752 13.6029L2.85628 14.5274L2.85628 14.5274L3.23752 13.6029ZM3.41362 13.6756L3.79486 12.7511H3.79486L3.41362 13.6756ZM4.4977 16.2928L5.42098 16.6769L5.42098 16.6769L4.4977 16.2928ZM4.42453 16.4686L3.50124 16.0845H3.50124L4.42453 16.4686ZM7.03934 19.0834L6.65521 18.1602L7.03934 19.0834ZM7.21521 19.0103L7.59933 19.9335H7.59933L7.21521 19.0103ZM9.83241 20.0943L8.90793 20.4756L8.90793 20.4756L9.83241 20.0943ZM9.90503 20.2704L10.8295 19.8892L10.8295 19.8892L9.90503 20.2704ZM13.6029 20.2704L14.5274 20.6517L13.6029 20.2704ZM13.6756 20.0943L12.7511 19.7131L13.6756 20.0943ZM16.2928 19.0103L15.9086 19.9335H15.9086L16.2928 19.0103ZM16.4686 19.0834L16.8527 18.1602H16.8527L16.4686 19.0834ZM19.0834 16.4686L18.1602 16.8527V16.8527L19.0834 16.4686ZM19.0103 16.2928L19.9335 15.9086V15.9086L19.0103 16.2928ZM20.0943 13.6756L20.4756 14.6L20.0943 13.6756ZM20.2704 13.6029L20.6517 14.5274L20.2704 13.6029ZM20.2704 9.90503L19.8892 10.8295L19.8892 10.8295L20.2704 9.90503ZM20.0943 9.83241L20.4756 8.90793L20.4756 8.90793L20.0943 9.83241ZM19.0103 7.21521L19.9335 7.59933V7.59933L19.0103 7.21521ZM19.0834 7.03934L18.1602 6.65521L19.0834 7.03934ZM16.4686 4.42453L16.0845 3.50124V3.50124L16.4686 4.42453ZM16.2928 4.4977L16.6769 5.42098L16.6769 5.42098L16.2928 4.4977ZM13.6756 3.41362L12.7511 3.79486V3.79486L13.6756 3.41362ZM10.8295 3.61876C11.1697 2.79375 12.3382 2.79375 12.6785 3.61876L14.5274 2.85628C13.5067 0.381242 10.0012 0.381241 8.98055 2.85628L10.8295 3.61876ZM10.7569 3.79486L10.8295 3.61876L8.98055 2.85628L8.90793 3.03237L10.7569 3.79486ZM6.83108 5.42098C8.3642 6.05882 10.1238 5.32996 10.7569 3.79486L8.90793 3.03237C8.69691 3.54408 8.11037 3.78703 7.59933 3.57441L6.83108 5.42098ZM6.65521 5.34781L6.83108 5.42098L7.59933 3.57441L7.42346 3.50124L6.65521 5.34781ZM5.34781 6.65521C5.00501 5.83127 5.83127 5.00501 6.65521 5.34781L7.42346 3.50124C4.95162 2.47285 2.47285 4.95162 3.50124 7.42346L5.34781 6.65521ZM5.42098 6.83108L5.34781 6.65521L3.50124 7.42346L3.57441 7.59933L5.42098 6.83108ZM3.79486 10.7569C5.32996 10.1238 6.05882 8.3642 5.42098 6.83108L3.57441 7.59933C3.78703 8.11037 3.54408 8.69691 3.03237 8.90793L3.79486 10.7569ZM3.61876 10.8295L3.79486 10.7569L3.03237 8.90793L2.85628 8.98055L3.61876 10.8295ZM3.61876 12.6785C2.79375 12.3382 2.79375 11.1697 3.61876 10.8295L2.85628 8.98055C0.381241 10.0012 0.381242 13.5067 2.85628 14.5274L3.61876 12.6785ZM3.79486 12.7511L3.61876 12.6785L2.85628 14.5274L3.03238 14.6L3.79486 12.7511ZM5.42098 16.6769C6.05882 15.1438 5.32996 13.3841 3.79486 12.7511L3.03237 14.6C3.54408 14.811 3.78703 15.3976 3.57441 15.9086L5.42098 16.6769ZM5.34781 16.8527L5.42098 16.6769L3.57441 15.9086L3.50124 16.0845L5.34781 16.8527ZM6.65521 18.1602C5.83127 18.5029 5.00501 17.6767 5.34781 16.8527L3.50124 16.0845C2.47285 18.5563 4.95163 21.0351 7.42346 20.0067L6.65521 18.1602ZM6.83108 18.087L6.65521 18.1602L7.42346 20.0067L7.59933 19.9335L6.83108 18.087ZM10.7569 19.7131C10.1238 18.178 8.3642 17.4491 6.83108 18.087L7.59933 19.9335C8.11037 19.7209 8.69691 19.9639 8.90793 20.4756L10.7569 19.7131ZM10.8295 19.8892L10.7569 19.7131L8.90793 20.4756L8.98055 20.6517L10.8295 19.8892ZM12.6785 19.8892C12.3382 20.7142 11.1697 20.7142 10.8295 19.8892L8.98055 20.6517C10.0012 23.1267 13.5067 23.1267 14.5274 20.6517L12.6785 19.8892ZM12.7511 19.7131L12.6785 19.8892L14.5274 20.6517L14.6 20.4756L12.7511 19.7131ZM16.6769 18.087C15.1438 17.4491 13.3841 18.178 12.7511 19.7131L14.6 20.4756C14.811 19.9639 15.3976 19.7209 15.9086 19.9335L16.6769 18.087ZM16.8527 18.1602L16.6769 18.087L15.9086 19.9335L16.0845 20.0067L16.8527 18.1602ZM18.1602 16.8527C18.5029 17.6767 17.6767 18.5029 16.8527 18.1602L16.0845 20.0067C18.5563 21.0351 21.0351 18.5563 20.0067 16.0845L18.1602 16.8527ZM18.087 16.6769L18.1602 16.8527L20.0067 16.0845L19.9335 15.9086L18.087 16.6769ZM19.7131 12.7511C18.178 13.3841 17.4491 15.1438 18.087 16.6769L19.9335 15.9086C19.7209 15.3976 19.9639 14.811 20.4756 14.6L19.7131 12.7511ZM19.8892 12.6785L19.7131 12.7511L20.4756 14.6L20.6517 14.5274L19.8892 12.6785ZM19.8892 10.8295C20.7142 11.1697 20.7142 12.3382 19.8892 12.6785L20.6517 14.5274C23.1267 13.5067 23.1267 10.0012 20.6517 8.98055L19.8892 10.8295ZM19.7131 10.7569L19.8892 10.8295L20.6517 8.98055L20.4756 8.90793L19.7131 10.7569ZM18.087 6.83108C17.4491 8.3642 18.178 10.1238 19.7131 10.7569L20.4756 8.90793C19.9639 8.69691 19.7209 8.11037 19.9335 7.59933L18.087 6.83108ZM18.1602 6.65521L18.087 6.83108L19.9335 7.59933L20.0067 7.42346L18.1602 6.65521ZM16.8527 5.34781C17.6767 5.00501 18.5029 5.83127 18.1602 6.65521L20.0067 7.42346C21.0351 4.95163 18.5563 2.47285 16.0845 3.50124L16.8527 5.34781ZM16.6769 5.42098L16.8527 5.34781L16.0845 3.50124L15.9086 3.57441L16.6769 5.42098ZM12.7511 3.79486C13.3841 5.32996 15.1438 6.05882 16.6769 5.42098L15.9086 3.57441C15.3976 3.78703 14.811 3.54408 14.6 3.03237L12.7511 3.79486ZM12.6785 3.61876L12.7511 3.79486L14.6 3.03238L14.5274 2.85628L12.6785 3.61876ZM14.754 11.754C14.754 13.4108 13.4108 14.754 11.754 14.754V16.754C14.5154 16.754 16.754 14.5154 16.754 11.754H14.754ZM11.754 8.75398C13.4108 8.75398 14.754 10.0971 14.754 11.754H16.754C16.754 8.99256 14.5154 6.75398 11.754 6.75398V8.75398ZM8.75398 11.754C8.75398 10.0971 10.0971 8.75398 11.754 8.75398V6.75398C8.99256 6.75398 6.75398 8.99256 6.75398 11.754H8.75398ZM11.754 14.754C10.0971 14.754 8.75398 13.4108 8.75398 11.754H6.75398C6.75398 14.5154 8.99256 16.754 11.754 16.754V14.754Z" fill="#333333" mask="url(#path-1-outside-1_128_471)"/>
</svg>
